{"title":"18+ ABCs Of Death 2 1,2 2016 UNCENSORED Movies HDRip XviD ☻rDX☻","uid":15478794,"size":739349778,"categoryP":"video","categoryS":"movies","magnet":"?xt=urn:btih:1973f3c9f1c8556724d72b41afc05388a36f8e53&amp;dn=18%2B+ABCs+Of+Death+2+1%2C2+2016+UNCENSORED+Movies+HDRip+XviD+%E2%98%BBrDX%E2%98%BB&amp;tr=udp%3A%2F%2Ftracker.leechers-paradise.org%3A6969&amp;tr=udp%3A%2F%2Fzer0day.ch%3A1337&amp;tr=udp%3A%2F%2Fopen.demonii.com%3A1337&amp;tr=udp%3A%2F%2Ftracker.coppersurfer.tk%3A6969&amp;tr=udp%3A%2F%2Fexodus.desync.com%3A6969","seeders":0,"leechers":1,"uploader":"basicssom","files":2,"time":1470220432,"description":"----------------------------------------------------------------\r\n18+ ABC's Of Death 2 ½ 2016 UNCENSORED Movies HDRip XviD AAC New Source with Sample ☻rDX☻\r\n\r\nSCREEN SHOTS &amp; POSTER:\r\n  \nhttp://postimage.co.nr/2016/8/return/index.htm  \nhttp://postimage.co.nr/2016/8/return/1.html  \nhttp://postimage.co.nr/2016/8/return/2.html  \nhttp://postimage.co.nr/2016/8/return/3.html  \nhttp://postimage.co.nr/2016/8/return/4.html  \nhttp://postimage.co.nr/2016/8/return/5.html  \nhttp://postimage.co.nr/2016/8/return/6.html  \nhttp://postimage.co.nr/2016/8/return/7.html  \nhttp://postimage.co.nr/2016/8/return/8.html  \nhttp://postimage.co.nr/2016/8/return/9.html  \nhttp://postimage.co.nr/2016/8/return/10.html\r\n\r\nFormat                                   : Matroska\r\nFormat version                           : Version 4 / Version 2\r\nFile size                                : 693 MiB\r\nDuration                                 : 1 h 25 min\r\nOverall bit rate                         : 1 134 kb/s\r\nMovie name                               : ABC's Of Death 2 ½ 2016 English Movies HDRip XviD AAC New Source ☻rDX☻\r\n\r\nVideo\r\nID                                       : 1\r\nFormat                                   : MPEG-4 Visual\r\nFormat profile                           : Advanced   \r\nFormat settings, BVOP                    : 2\r\nFormat settings, QPel                    : No\r\nFormat settings, GMC                     : No warppoints\r\nFormat settings, Matrix                  : Default (H.263)\r\nMuxing mode                              : Packed bitstream\r\nCodec ID                                 : V_MS/VFW/FOURCC / XVID\r\nCodec ID/Hint                            : XviD\r\nDuration                                 : 1 h 25 min\r\nBit rate                                 : 984 kb/s\r\nWidth                                    : 640 pixels\r\nHeight                                   : 352 pixels\r\nDisplay aspect ratio                     : 16:9\r\nFrame rate mode                          : Constant\r\nFrame rate                               : 23.976 (24000/1001) FPS\r\nColor space                              : YUV\r\nChroma subsampling                       : 4:2:0\r\nBit depth                                : 8 bits\r\nScan type                                : Progressive\r\nCompression mode                         : Lossy\r\nBits/(Pixel*Frame)                       : 0.182\r\nStream size                              : 601 MiB (87%)\r\nTitle                                    : ☻rDX☻\r\nWriting library                          : XviD 64\r\nDefault                                  : Yes\r\nForced                                   : No\r\n\r\nAudio\r\nID                                       : 2\r\nFormat                                   : MPEG Audio\r\nFormat version                           : Version 1\r\nFormat profile                           : Layer 3\r\nMode                                     : Joint stereo\r\nMode extension                           : MS Stereo\r\nCodec ID                                 : A_MPEG/L3\r\nCodec ID/Hint                            : MP3\r\nDuration                                 : 1 h 25 min\r\nBit rate mode                            : Constant\r\nBit rate                                 : 128 kb/s\r\nChannel(s)                               : 2 channels\r\nSampling rate                            : 48.0 kHz\r\nCompression mode                         : Lossy\r\nStream size                              : 78.2 MiB (11%)\r\nTitle                                    : ☻rDX☻\r\nWriting library                          : LAME3.99r\r\nEncoding settings                        : -m j -V 4 -q 3 -lowpass 17 -b 128\r\nDefault                                  : Yes\r\nForced                                   : No\r\n\r\nIMDB \nhttp://www.imdb.com/title/tt5647758/","torrent":{"xt":"urn:btih:1973f3c9f1c8556724d72b41afc05388a36f8e53","amp;dn":"18%2B+ABCs+Of+Death+2+1%2C2+2016+UNCENSORED+Movies+HDRip+XviD+%E2%98%BBrDX%E2%98%BB","amp;tr":["udp%3A%2F%2Ftracker.leechers-paradise.org%3A6969","udp%3A%2F%2Fzer0day.ch%3A1337","udp%3A%2F%2Fopen.demonii.com%3A1337","udp%3A%2F%2Ftracker.coppersurfer.tk%3A6969","udp%3A%2F%2Fexodus.desync.com%3A6969"],"infoHash":"1973f3c9f1c8556724d72b41afc05388a36f8e53","infoHashBuffer":{"type":"Buffer","data":[25,115,243,201,241,200,85,103,36,215,43,65,175,192,83,136,163,111,142,83]},"announce":[],"urlList":[]}}